<?xml version="1.0" encoding="UTF-8"?>
<svg id="Layer_1" xmlns="http://www.w3.org/2000/svg" version="1.1" viewBox="0 0 529.51 148.83">
  <!-- Generator: Adobe Illustrator 29.7.1, SVG Export Plug-In . SVG Version: 2.1.1 Build 8)  -->
  <defs>
    <style>
      .st0 {
        fill: #75c76a;
      }
    </style>
  </defs>
  <path d="M39.41,123.97c-8.02,0-14.98-1.72-20.88-5.18-5.9-3.45-10.47-8.35-13.69-14.7-3.23-6.35-4.84-13.8-4.84-22.38,0-6.46.92-12.27,2.76-17.45s4.48-9.6,7.93-13.28c3.45-3.67,7.6-6.48,12.44-8.43,4.84-1.95,10.27-2.92,16.28-2.92,8.02,0,14.97,1.73,20.88,5.18,5.9,3.45,10.46,8.32,13.69,14.61,3.23,6.29,4.84,13.72,4.84,22.29,0,6.46-.92,12.3-2.76,17.54-1.84,5.23-4.48,9.69-7.93,13.36-3.45,3.67-7.6,6.49-12.44,8.43-4.84,1.95-10.27,2.92-16.28,2.92ZM39.41,111.95c4.9,0,9.16-1.17,12.78-3.51,3.62-2.34,6.4-5.73,8.35-10.19,1.95-4.45,2.92-9.96,2.92-16.53,0-9.79-2.17-17.26-6.51-22.38-4.34-5.12-10.19-7.68-17.54-7.68-4.79,0-8.99,1.14-12.61,3.42-3.62,2.28-6.43,5.65-8.43,10.1-2,4.45-3.01,9.96-3.01,16.53,0,9.8,2.2,17.29,6.6,22.46,4.4,5.18,10.21,7.77,17.45,7.77Z"/>
  <path d="M111.37,123.97c-5.01,0-10.05-.58-15.11-1.75-5.07-1.17-9.83-3.2-14.28-6.1-1.23-.78-2.09-1.75-2.59-2.92s-.67-2.34-.5-3.51.64-2.2,1.42-3.09c.78-.89,1.75-1.42,2.92-1.59s2.42.14,3.76.92c4.34,2.45,8.54,4.18,12.61,5.18,4.06,1,8.1,1.5,12.11,1.5,6.12,0,10.74-1.11,13.86-3.34,3.12-2.23,4.68-5.18,4.68-8.85,0-3.12-1.03-5.54-3.09-7.26-2.06-1.72-5.26-3.03-9.6-3.92l-15.53-3.17c-6.9-1.56-12.11-4.15-15.61-7.77-3.51-3.62-5.26-8.27-5.26-13.95,0-5.01,1.36-9.38,4.09-13.11,2.73-3.73,6.54-6.6,11.44-8.6,4.9-2,10.52-3.01,16.87-3.01,4.9,0,9.54.64,13.94,1.92,4.4,1.28,8.38,3.2,11.94,5.76,1.34.78,2.2,1.75,2.59,2.92.39,1.17.44,2.34.17,3.51-.28,1.17-.81,2.15-1.59,2.92s-1.78,1.25-3.01,1.42c-1.23.17-2.56-.14-4.01-.92-3.23-2.23-6.54-3.81-9.94-4.76-3.4-.94-6.76-1.42-10.1-1.42-6.01,0-10.55,1.17-13.61,3.51-3.06,2.34-4.59,5.4-4.59,9.18,0,2.9.92,5.29,2.76,7.18,1.84,1.89,4.76,3.29,8.77,4.17l15.53,3.17c7.24,1.56,12.69,4.04,16.37,7.43,3.67,3.4,5.51,7.99,5.51,13.78,0,7.57-2.98,13.56-8.93,17.95-5.96,4.4-13.94,6.6-23.96,6.6Z"/>
  <path d="M155.2,123.64c-2.34,0-4.17-.67-5.51-2-1.34-1.34-2-3.28-2-5.84V47.66c0-2.56.67-4.48,2-5.76,1.34-1.28,3.17-1.92,5.51-1.92s4.15.64,5.43,1.92c1.28,1.28,1.92,3.2,1.92,5.76v14.19l-1.84-3.01c2.11-6.12,5.54-10.85,10.27-14.19,4.73-3.34,10.38-5.01,16.95-5.01,6.9,0,12.47,1.64,16.7,4.93,4.23,3.29,7.07,8.27,8.52,14.95h-2.34c2-6.12,5.59-10.96,10.77-14.53,5.18-3.56,11.22-5.34,18.12-5.34,6.12,0,11.16,1.2,15.11,3.59,3.95,2.4,6.93,5.96,8.93,10.69,2,4.73,3.01,10.77,3.01,18.12v43.75c0,2.56-.67,4.51-2,5.84s-3.17,2-5.51,2-4.34-.67-5.68-2-2-3.28-2-5.84v-43.09c0-7.12-1.23-12.36-3.67-15.7-2.45-3.34-6.57-5.01-12.36-5.01-6.35,0-11.38,2.2-15.11,6.6-3.73,4.4-5.59,10.44-5.59,18.12v39.08c0,2.56-.64,4.51-1.92,5.84-1.28,1.34-3.15,2-5.59,2s-4.34-.67-5.68-2-2-3.28-2-5.84v-43.09c0-7.12-1.23-12.36-3.67-15.7-2.45-3.34-6.57-5.01-12.36-5.01-6.35,0-11.38,2.2-15.11,6.6-3.73,4.4-5.59,10.44-5.59,18.12v39.08c0,5.23-2.56,7.85-7.68,7.85Z"/>
  <path d="M309.59,123.97c-8.02,0-14.97-1.72-20.88-5.18-5.9-3.45-10.46-8.35-13.69-14.7-3.23-6.35-4.84-13.8-4.84-22.38,0-6.46.92-12.27,2.75-17.45,1.84-5.18,4.48-9.6,7.93-13.28,3.45-3.67,7.6-6.48,12.44-8.43,4.84-1.95,10.27-2.92,16.28-2.92,8.02,0,14.97,1.73,20.88,5.18,5.9,3.45,10.46,8.32,13.7,14.61,3.23,6.29,4.84,13.72,4.84,22.29,0,6.46-.92,12.3-2.75,17.54-1.84,5.23-4.48,9.69-7.93,13.36-3.45,3.67-7.6,6.49-12.44,8.43-4.84,1.95-10.27,2.92-16.28,2.92ZM309.59,111.95c4.9,0,9.16-1.17,12.78-3.51,3.62-2.34,6.4-5.73,8.35-10.19,1.95-4.45,2.92-9.96,2.92-16.53,0-9.79-2.17-17.26-6.51-22.38-4.34-5.12-10.19-7.68-17.54-7.68-4.79,0-8.99,1.14-12.61,3.42-3.62,2.28-6.43,5.65-8.43,10.1-2,4.45-3.01,9.96-3.01,16.53,0,9.8,2.2,17.29,6.6,22.46,4.4,5.18,10.21,7.77,17.45,7.77Z"/>
  <path class="st0" d="M398.44,148.83c-3.77,0-7.03-.99-9.8-2.97-2.78-1.98-5.15-5.15-7.13-9.51l-27.47-60.86c-1.39-3.36-1.88-6.43-1.48-9.21.39-2.77,1.73-5.05,4.01-6.83,2.28-1.78,5.39-2.67,9.36-2.67,3.36,0,6.04.79,8.02,2.38,1.98,1.59,3.86,4.36,5.65,8.32l23.6,58.18h-8.32l47.83-114.97c1.58-3.96,3.42-6.73,5.5-8.32,2.08-1.58,5-2.38,8.76-2.38,3.37,0,5.99.89,7.87,2.67,1.88,1.78,3.02,4.06,3.42,6.83.4,2.77-.2,5.74-1.78,8.91l-50.8,117.94c-1.78,4.36-4.11,7.53-6.98,9.51-2.87,1.98-6.29,2.97-10.25,2.97Z"/>
  <path d="M490.1,123.97c-8.02,0-14.97-1.72-20.88-5.18-5.9-3.45-10.47-8.35-13.69-14.7-3.23-6.35-4.84-13.8-4.84-22.38,0-6.46.92-12.27,2.76-17.45s4.48-9.6,7.93-13.28c3.45-3.67,7.6-6.48,12.44-8.43,4.84-1.95,10.27-2.92,16.28-2.92,8.02,0,14.97,1.73,20.88,5.18,5.9,3.45,10.46,8.32,13.69,14.61,3.23,6.29,4.84,13.72,4.84,22.29,0,6.46-.92,12.3-2.76,17.54-1.84,5.23-4.48,9.69-7.93,13.36-3.45,3.67-7.6,6.49-12.44,8.43-4.84,1.95-10.27,2.92-16.28,2.92ZM490.1,111.95c4.9,0,9.16-1.17,12.78-3.51,3.62-2.34,6.4-5.73,8.35-10.19,1.95-4.45,2.92-9.96,2.92-16.53,0-9.79-2.17-17.26-6.51-22.38-4.34-5.12-10.19-7.68-17.54-7.68-4.79,0-8.99,1.14-12.61,3.42-3.62,2.28-6.43,5.65-8.43,10.1-2,4.45-3.01,9.96-3.01,16.53,0,9.8,2.2,17.29,6.6,22.46,4.4,5.18,10.21,7.77,17.45,7.77Z"/>
</svg>