<?xml version="1.0" encoding="UTF-8"?>
<svg id="Layer_1" xmlns="http://www.w3.org/2000/svg" version="1.1" viewBox="0 0 248.84 319.79">
  <!-- Generator: Adobe Illustrator 29.7.1, SVG Export Plug-In . SVG Version: 2.1.1 Build 8)  -->
  <defs>
    <style>
      .st0 {
        fill: #75c76a;
      }
    </style>
  </defs>
  <path class="st0" d="M98.59,319.79c-8.09,0-15.11-2.14-21.07-6.38-5.96-4.25-11.07-11.06-15.32-20.42L3.19,162.22c-2.98-7.23-4.05-13.83-3.19-19.79.85-5.96,3.72-10.85,8.61-14.68,4.89-3.83,11.59-5.74,20.11-5.74,7.23,0,12.98,1.71,17.23,5.11,4.25,3.41,8.3,9.37,12.13,17.88l50.72,125.01h-17.87L193.7,22.98c3.4-8.51,7.34-14.46,11.81-17.88,4.46-3.4,10.74-5.11,18.83-5.11,7.23,0,12.87,1.91,16.92,5.74,4.04,3.83,6.48,8.73,7.34,14.68.85,5.96-.43,12.34-3.83,19.15l-109.15,253.4c-3.83,9.37-8.84,16.18-15,20.42-6.17,4.25-13.52,6.38-22.02,6.38Z"/>
</svg>