<?xml version="1.0" standalone="no"?>
<!DOCTYPE svg PUBLIC "-//W3C//DTD SVG 20010904//EN"
 "http://www.w3.org/TR/2001/REC-SVG-20010904/DTD/svg10.dtd">
<svg version="1.0" xmlns="http://www.w3.org/2000/svg"
 width="400.000000pt" height="400.000000pt" viewBox="0 0 400.000000 400.000000"
 preserveAspectRatio="xMidYMid meet">

<g transform="translate(0.000000,400.000000) scale(0.100000,-0.100000)"
fill="#000000" stroke="none">
<path d="M1033 2755 c-37 -16 -50 -37 -63 -105 -7 -39 -6 -59 4 -84 27 -64 35
-66 288 -66 l228 0 30 28 c24 21 33 40 41 87 13 74 2 107 -43 135 -30 18 -50
20 -243 20 -156 -1 -218 -4 -242 -15z"/>
<path d="M1841 2758 c-43 -23 -63 -61 -68 -131 -5 -63 -4 -67 25 -96 l30 -31
244 0 c147 0 259 -4 283 -11 25 -7 58 -29 86 -58 66 -65 75 -112 49 -254 -21
-117 -34 -149 -77 -188 -67 -63 -69 -63 -414 -69 -338 -5 -337 -5 -358 -58
-12 -31 -91 -492 -91 -534 0 -16 12 -41 29 -60 l29 -33 677 -3 c431 -1 690 1
714 8 53 14 116 72 135 123 9 23 29 121 45 217 17 96 62 357 101 580 64 360
70 409 60 445 -19 63 -48 103 -98 133 l-47 27 -665 3 c-517 1 -670 -1 -689
-10z"/>
<path d="M1140 2323 c-32 -28 -49 -79 -50 -140 0 -22 9 -43 29 -65 l29 -33
426 -3 c369 -2 430 -1 456 13 37 19 56 55 64 120 8 58 -16 109 -60 125 -15 6
-196 10 -444 10 l-420 0 -30 -27z"/>
<path d="M697 1894 c-27 -27 -41 -71 -41 -138 0 -31 6 -44 32 -67 l32 -29 311
0 c194 0 318 4 330 10 28 16 48 62 55 129 6 57 5 61 -24 90 l-30 31 -320 0
-319 0 -26 -26z"/>
<path d="M1008 1484 c-34 -18 -46 -39 -58 -104 -12 -64 5 -112 49 -134 40 -21
227 -22 276 -2 39 17 52 37 65 106 11 60 -3 107 -41 134 -32 22 -250 23 -291
0z"/>
</g>
</svg>
