<?xml version="1.0" encoding="utf-8"?>
<!-- Generator: Adobe Illustrator 29.7.1, SVG Export Plug-In . SVG Version: 9.03 Build 0)  -->
<svg version="1.0" id="Layer_1" xmlns="http://www.w3.org/2000/svg" xmlns:xlink="http://www.w3.org/1999/xlink" x="0px" y="0px"
	 viewBox="0 0 400 400" style="enable-background:new 0 0 400 400;" xml:space="preserve">
<style type="text/css">
	.st0{fill:#1988CB;}
</style>
<g transform="translate(0.000000,400.000000) scale(0.100000,-0.100000)">
	<path class="st0" d="M1033,2755c-37-16-50-37-63-105c-7-39-6-59,4-84c27-64,35-66,288-66h228l30,28c24,21,33,40,41,87
		c13,74,2,107-43,135c-30,18-50,20-243,20C1119,2769,1057,2766,1033,2755z"/>
	<path class="st0" d="M1841,2758c-43-23-63-61-68-131c-5-63-4-67,25-96l30-31h244c147,0,259-4,283-11c25-7,58-29,86-58
		c66-65,75-112,49-254c-21-117-34-149-77-188c-67-63-69-63-414-69c-338-5-337-5-358-58c-12-31-91-492-91-534c0-16,12-41,29-60l29-33
		l677-3c431-1,690,1,714,8c53,14,116,72,135,123c9,23,29,121,45,217c17,96,62,357,101,580c64,360,70,409,60,445
		c-19,63-48,103-98,133l-47,27l-665,3C2013,2769,1860,2767,1841,2758z"/>
	<path class="st0" d="M1140,2323c-32-28-49-79-50-140c0-22,9-43,29-65l29-33l426-3c369-2,430-1,456,13c37,19,56,55,64,120
		c8,58-16,109-60,125c-15,6-196,10-444,10h-420L1140,2323z"/>
	<path class="st0" d="M697,1894c-27-27-41-71-41-138c0-31,6-44,32-67l32-29h311c194,0,318,4,330,10c28,16,48,62,55,129
		c6,57,5,61-24,90l-30,31h-320H723L697,1894z"/>
	<path class="st0" d="M1008,1484c-34-18-46-39-58-104c-12-64,5-112,49-134c40-21,227-22,276-2c39,17,52,37,65,106
		c11,60-3,107-41,134C1267,1506,1049,1507,1008,1484z"/>
</g>
</svg>
